<svg width="291" height="68" viewBox="0 0 291 68" fill="none" xmlns="http://www.w3.org/2000/svg">
<path d="M29.4744 39.7203L43.3459 53.614L29.5333 67.4485L15.6617 53.5549L29.4744 39.7203Z" fill="#602B7A"/>
<path d="M0 0H291V53.6497H0V0Z" fill="#602B7A"/>
<path d="M64.6201 15.9337V37.7146H59.9628V20.4641H52.7614V28.5666C52.7614 32.0225 52.0139 34.4765 50.519 35.9285C49.0241 37.3806 46.8967 37.9759 44.1368 37.7146V33.3148C45.4593 33.5472 46.4511 33.2713 47.1123 32.4871C47.7735 31.703 48.1041 30.3236 48.1041 28.3488V15.9337H64.6201Z" fill="white"/>
<path d="M84.4932 15.9337V20.4641H74.7044V37.7146H70.0471V15.9337H84.4932Z" fill="white"/>
<path d="M96.9846 38.2809C93.8223 38.2809 91.1343 37.1773 88.9207 34.9702C86.707 32.763 85.6002 30.0477 85.6002 26.8241C85.6002 23.6006 86.707 20.8852 88.9207 18.6781C91.1343 16.4709 93.8223 15.3674 96.9846 15.3674C100.176 15.3674 102.864 16.4709 105.049 18.6781C107.262 20.8852 108.369 23.6006 108.369 26.8241C108.369 30.0477 107.262 32.763 105.049 34.9702C102.864 37.1773 100.176 38.2809 96.9846 38.2809ZM92.198 31.7466C93.4917 33.0534 95.0872 33.7069 96.9846 33.7069C98.882 33.7069 100.478 33.0534 101.771 31.7466C103.065 30.4397 103.712 28.7989 103.712 26.8241C103.712 24.8493 103.065 23.2085 101.771 21.9016C100.478 20.5948 98.882 19.9414 96.9846 19.9414C95.0872 19.9414 93.4917 20.5948 92.198 21.9016C90.9043 23.2085 90.2575 24.8493 90.2575 26.8241C90.2575 28.7989 90.9043 30.4397 92.198 31.7466Z" fill="white"/>
<path d="M123.754 15.3674C126.715 15.3674 129.245 16.4855 131.344 18.7216C133.442 20.9288 134.492 23.6296 134.492 26.8241C134.492 30.0477 133.442 32.763 131.344 34.9702C129.245 37.1773 126.715 38.2809 123.754 38.2809C120.477 38.2809 117.961 37.0611 116.207 34.6217V44.8793H111.55V15.9337H116.207V19.0701C117.961 16.6016 120.477 15.3674 123.754 15.3674ZM118.148 31.8337C119.442 33.1406 121.066 33.794 123.021 33.794C124.976 33.794 126.6 33.1406 127.894 31.8337C129.188 30.4978 129.834 28.828 129.834 26.8241C129.834 24.8203 129.188 23.1649 127.894 21.8581C126.6 20.5222 124.976 19.8542 123.021 19.8542C121.066 19.8542 119.442 20.5222 118.148 21.8581C116.854 23.1649 116.207 24.8203 116.207 26.8241C116.207 28.828 116.854 30.4978 118.148 31.8337Z" fill="white"/>
<path d="M153.293 15.9337H156.873V37.7146H152.302V23.8619L141.262 37.7146H137.683V15.9337H142.254V29.7428L153.293 15.9337Z" fill="white"/>
<path d="M178.749 15.9337V20.4641H171.72V37.7146H167.063V20.4641H159.991V15.9337H178.749Z" fill="white"/>
<path d="M203.893 15.9337V37.7146H199.365V23.3827L193.156 33.3584H192.595L186.428 23.4263V37.7146H181.901V15.9337H186.644L192.897 25.9964L199.15 15.9337H203.893Z" fill="white"/>
<path d="M224.884 15.9337H228.463V37.7146H223.892V23.8619L212.852 37.7146H209.273V15.9337H213.844V29.7428L224.884 15.9337Z" fill="white"/>
<path d="M252.412 37.7146H246.849L238.009 27.6518V37.7146H233.352V15.9337H238.009V25.5608L246.375 15.9337H252.067L242.58 26.6063L252.412 37.7146Z" fill="white"/>
<path d="M269.864 15.9337H274.522V37.7146H269.864V34.5781C268.111 37.0466 265.595 38.2809 262.318 38.2809C259.357 38.2809 256.827 37.1773 254.728 34.9702C252.63 32.734 251.58 30.0186 251.58 26.8241C251.58 23.6006 252.63 20.8852 254.728 18.6781C256.827 16.4709 259.357 15.3674 262.318 15.3674C265.595 15.3674 268.111 16.5871 269.864 19.0266V15.9337ZM258.178 31.8337C259.472 33.1406 261.096 33.794 263.051 33.794C265.006 33.794 266.63 33.1406 267.924 31.8337C269.218 30.4978 269.864 28.828 269.864 26.8241C269.864 24.8203 269.218 23.1649 267.924 21.8581C266.63 20.5222 265.006 19.8542 263.051 19.8542C261.096 19.8542 259.472 20.5222 258.178 21.8581C256.885 23.1649 256.238 24.8203 256.238 26.8241C256.238 28.828 256.885 30.4978 258.178 31.8337Z" fill="white"/>
<path d="M37.9188 37.7146L35.2811 31.5724H23.4351L20.8422 37.7146H15.4519L26.7829 8.76892H31.9333L43.266 37.7146H37.9188ZM24.9802 26.8677H33.736L29.3581 14.7013L24.9802 26.8677Z" fill="white"/>
</svg>
