<svg width="232" height="56" viewBox="0 0 232 56" fill="none" xmlns="http://www.w3.org/2000/svg">
<g filter="url(#filter0_d_34263_208)">
<mask id="path-1-outside-1_34263_208" maskUnits="userSpaceOnUse" x="170" y="0" width="59" height="52" fill="black">
<rect fill="white" x="170" width="59" height="52"/>
<path fill-rule="evenodd" clip-rule="evenodd" d="M216.688 3.71746V17.3219L227 27.762H220.125V50.089H211.45V50.0891H188.701V50.089H178.875V27.762H172L199.5 2L208.094 9.99158V3.71746H216.688Z"/>
</mask>
<path fill-rule="evenodd" clip-rule="evenodd" d="M216.688 3.71746V17.3219L227 27.762H220.125V50.089H211.45V50.0891H188.701V50.089H178.875V27.762H172L199.5 2L208.094 9.99158V3.71746H216.688Z" fill="#602B7A"/>
<path d="M216.688 17.3219H214.96C214.96 17.7765 215.139 18.2127 215.458 18.5361L216.688 17.3219ZM216.688 3.71746H218.415C218.415 2.76326 217.642 1.98972 216.688 1.98972V3.71746ZM227 27.762V29.4897C227.697 29.4897 228.326 29.0711 228.594 28.428C228.863 27.785 228.719 27.0436 228.229 26.5478L227 27.762ZM220.125 27.762V26.0342C219.171 26.0342 218.397 26.8078 218.397 27.762H220.125ZM220.125 50.089V51.8168C221.079 51.8168 221.853 51.0432 221.853 50.089H220.125ZM211.45 50.089V48.3613C210.496 48.3613 209.722 49.1348 209.722 50.089H211.45ZM211.45 50.0891V51.8169C212.404 51.8169 213.178 51.0434 213.178 50.0891H211.45ZM188.701 50.0891H186.974C186.974 51.0434 187.747 51.8169 188.701 51.8169V50.0891ZM188.701 50.089H190.429C190.429 49.1348 189.655 48.3613 188.701 48.3613V50.089ZM178.875 50.089H177.147C177.147 51.0432 177.921 51.8168 178.875 51.8168V50.089ZM178.875 27.762H180.603C180.603 26.8078 179.829 26.0342 178.875 26.0342V27.762ZM172 27.762L170.819 26.5011C170.301 26.9858 170.133 27.7376 170.393 28.397C170.654 29.0565 171.291 29.4897 172 29.4897V27.762ZM199.5 2L200.677 0.734774C200.012 0.116414 198.981 0.118305 198.319 0.739102L199.5 2ZM208.094 9.99158L206.917 11.2568C207.421 11.7249 208.154 11.8501 208.784 11.5755C209.414 11.301 209.821 10.679 209.821 9.99158H208.094ZM208.094 3.71746V1.98972C207.14 1.98972 206.366 2.76326 206.366 3.71746L208.094 3.71746ZM218.415 17.3219V3.71746H214.96V17.3219H218.415ZM228.229 26.5478L217.917 16.1078L215.458 18.5361L225.771 28.9761L228.229 26.5478ZM220.125 29.4897H227V26.0342H220.125V29.4897ZM221.853 50.089V27.762H218.397V50.089H221.853ZM211.45 51.8168H220.125V48.3613H211.45V51.8168ZM209.722 50.089V50.0891H213.178V50.089H209.722ZM211.45 48.3614H188.701V51.8169H211.45V48.3614ZM190.429 50.0891V50.089H186.974V50.0891H190.429ZM178.875 51.8168H188.701V48.3613H178.875V51.8168ZM177.147 27.762V50.089H180.603V27.762H177.147ZM172 29.4897H178.875V26.0342H172V29.4897ZM198.319 0.739102L170.819 26.5011L173.181 29.0229L200.681 3.2609L198.319 0.739102ZM209.27 8.72635L200.677 0.734774L198.323 3.26523L206.917 11.2568L209.27 8.72635ZM206.366 3.71746V9.99158H209.821V3.71746H206.366ZM216.688 1.98972H208.094V5.44521H216.688V1.98972Z" fill="#602B7A" mask="url(#path-1-outside-1_34263_208)"/>
<path d="M216.688 17.3219V3.71746H208.094V9.99158L199.5 2L172 27.762H178.875V50.089H194.344V32.9144H204.656V50.089H220.125V27.762H227L216.688 17.3219Z" fill="#FFD749"/>
</g>
<g filter="url(#filter1_d_34263_208)">
<path d="M16.4083 33.1124L24.1306 40.847L16.4411 48.5488L8.71881 40.8142L16.4083 33.1124Z" fill="#602B7A"/>
<path d="M0 11H162V40.8669H0V11Z" fill="#602B7A"/>
<path d="M35.974 19.8703V31.9958H33.3813V22.3924H29.3723V26.9031C29.3723 28.827 28.9562 30.1931 28.1239 31.0015C27.2917 31.8099 26.1074 32.1413 24.571 31.9958V29.5464C25.3072 29.6758 25.8593 29.5222 26.2274 29.0857C26.5955 28.6492 26.7796 27.8812 26.7796 26.7818V19.8703H35.974Z" fill="white"/>
<path d="M47.0374 19.8703V22.3924H41.588V31.9958H38.9953V19.8703H47.0374Z" fill="white"/>
<path d="M53.9914 32.311C52.2309 32.311 50.7345 31.6967 49.5022 30.468C48.2699 29.2393 47.6537 27.7276 47.6537 25.9331C47.6537 24.1385 48.2699 22.6269 49.5022 21.3981C50.7345 20.1694 52.2309 19.5551 53.9914 19.5551C55.7679 19.5551 57.2643 20.1694 58.4806 21.3981C59.7129 22.6269 60.3291 24.1385 60.3291 25.9331C60.3291 27.7276 59.7129 29.2393 58.4806 30.468C57.2643 31.6967 55.7679 32.311 53.9914 32.311ZM51.3267 28.6734C52.0469 29.4009 52.9351 29.7647 53.9914 29.7647C55.0477 29.7647 55.9359 29.4009 56.6561 28.6734C57.3763 27.9459 57.7364 27.0324 57.7364 25.9331C57.7364 24.8337 57.3763 23.9202 56.6561 23.1927C55.9359 22.4652 55.0477 22.1014 53.9914 22.1014C52.9351 22.1014 52.0469 22.4652 51.3267 23.1927C50.6065 23.9202 50.2464 24.8337 50.2464 25.9331C50.2464 27.0324 50.6065 27.9459 51.3267 28.6734Z" fill="white"/>
<path d="M68.894 19.5551C70.5424 19.5551 71.9508 20.1775 73.1192 21.4224C74.2875 22.6511 74.8716 24.1547 74.8716 25.9331C74.8716 27.7276 74.2875 29.2393 73.1192 30.468C71.9508 31.6967 70.5424 32.311 68.894 32.311C67.0695 32.311 65.669 31.632 64.6928 30.274V35.9844H62.1V19.8703H64.6928V21.6164C65.669 20.2422 67.0695 19.5551 68.894 19.5551ZM65.7731 28.7219C66.4933 29.4494 67.3976 29.8132 68.4859 29.8132C69.5742 29.8132 70.4784 29.4494 71.1986 28.7219C71.9188 27.9782 72.2789 27.0486 72.2789 25.9331C72.2789 24.8175 71.9188 23.896 71.1986 23.1685C70.4784 22.4248 69.5742 22.0529 68.4859 22.0529C67.3976 22.0529 66.4933 22.4248 65.7731 23.1685C65.0529 23.896 64.6928 24.8175 64.6928 25.9331C64.6928 27.0486 65.0529 27.9782 65.7731 28.7219Z" fill="white"/>
<path d="M85.3385 19.8703H87.3311V31.9958H84.7864V24.284L78.6406 31.9958H76.648V19.8703H79.1927V27.5579L85.3385 19.8703Z" fill="white"/>
<path d="M99.5098 19.8703V22.3924H95.5968V31.9958H93.0041V22.3924H89.067V19.8703H99.5098Z" fill="white"/>
<path d="M113.507 19.8703V31.9958H110.987V24.0172L107.53 29.5707H107.218L103.785 24.0415V31.9958H101.264V19.8703H103.905L107.386 25.4723L110.867 19.8703H113.507Z" fill="white"/>
<path d="M125.193 19.8703H127.185V31.9958H124.641V24.284L118.495 31.9958H116.503V19.8703H119.047V27.5579L125.193 19.8703Z" fill="white"/>
<path d="M140.518 31.9958H137.421L132.5 26.3938V31.9958H129.907V19.8703H132.5V25.2298L137.157 19.8703H140.326L135.044 25.8118L140.518 31.9958Z" fill="white"/>
<path d="M150.234 19.8703H152.826V31.9958H150.234V30.2497C149.257 31.6239 147.857 32.311 146.033 32.311C144.384 32.311 142.976 31.6967 141.808 30.468C140.639 29.2231 140.055 27.7115 140.055 25.9331C140.055 24.1385 140.639 22.6269 141.808 21.3981C142.976 20.1694 144.384 19.5551 146.033 19.5551C147.857 19.5551 149.257 20.2341 150.234 21.5922V19.8703ZM143.728 28.7219C144.448 29.4494 145.352 29.8132 146.441 29.8132C147.529 29.8132 148.433 29.4494 149.153 28.7219C149.874 27.9782 150.234 27.0486 150.234 25.9331C150.234 24.8175 149.874 23.896 149.153 23.1685C148.433 22.4248 147.529 22.0529 146.441 22.0529C145.352 22.0529 144.448 22.4248 143.728 23.1685C143.008 23.896 142.648 24.8175 142.648 25.9331C142.648 27.0486 143.008 27.9782 143.728 28.7219Z" fill="white"/>
<path d="M21.1094 31.9958L19.641 28.5764H13.0463L11.6029 31.9958H8.60205L14.91 15.8817H17.7773L24.0862 31.9958H21.1094ZM13.9065 25.9573H18.7808L16.3436 19.1843L13.9065 25.9573Z" fill="white"/>
</g>
<defs>
<filter id="filter0_d_34263_208" x="170.272" y="0.272217" width="60.8014" height="55.0634" filterUnits="userSpaceOnUse" color-interpolation-filters="sRGB">
<feFlood flood-opacity="0" result="BackgroundImageFix"/>
<feColorMatrix in="SourceAlpha" type="matrix" values="0 0 0 0 0 0 0 0 0 0 0 0 0 0 0 0 0 0 127 0" result="hardAlpha"/>
<feOffset dx="2.34581" dy="3.51871"/>
<feComposite in2="hardAlpha" operator="out"/>
<feColorMatrix type="matrix" values="0 0 0 0 0 0 0 0 0 0 0 0 0 0 0 0 0 0 0.25 0"/>
<feBlend mode="normal" in2="BackgroundImageFix" result="effect1_dropShadow_34263_208"/>
<feBlend mode="normal" in="SourceGraphic" in2="effect1_dropShadow_34263_208" result="shape"/>
</filter>
<filter id="filter1_d_34263_208" x="0" y="11" width="164" height="40.5487" filterUnits="userSpaceOnUse" color-interpolation-filters="sRGB">
<feFlood flood-opacity="0" result="BackgroundImageFix"/>
<feColorMatrix in="SourceAlpha" type="matrix" values="0 0 0 0 0 0 0 0 0 0 0 0 0 0 0 0 0 0 127 0" result="hardAlpha"/>
<feOffset dx="2" dy="3"/>
<feComposite in2="hardAlpha" operator="out"/>
<feColorMatrix type="matrix" values="0 0 0 0 0 0 0 0 0 0 0 0 0 0 0 0 0 0 0.25 0"/>
<feBlend mode="normal" in2="BackgroundImageFix" result="effect1_dropShadow_34263_208"/>
<feBlend mode="normal" in="SourceGraphic" in2="effect1_dropShadow_34263_208" result="shape"/>
</filter>
</defs>
</svg>
