<svg width="227" height="48" viewBox="0 0 227 48" fill="none" xmlns="http://www.w3.org/2000/svg">
<g filter="url(#filter0_d_34263_207)">
<mask id="path-1-outside-1_34263_207" maskUnits="userSpaceOnUse" x="174" y="0" width="51" height="45" fill="black">
<rect fill="white" x="174" width="51" height="45"/>
<path fill-rule="evenodd" clip-rule="evenodd" d="M214.1 3.46429V15.0633L222.892 23.9643H217.031V43H209.635V43.0001H190.239V43H181.862V23.9643H176L199.446 2L206.773 8.8135V3.46429H214.1Z"/>
</mask>
<path fill-rule="evenodd" clip-rule="evenodd" d="M214.1 3.46429V15.0633L222.892 23.9643H217.031V43H209.635V43.0001H190.239V43H181.862V23.9643H176L199.446 2L206.773 8.8135V3.46429H214.1Z" fill="#602B7A"/>
<path d="M214.1 15.0633H212.627C212.627 15.4508 212.78 15.8227 213.052 16.0984L214.1 15.0633ZM214.1 3.46429H215.573C215.573 2.65074 214.913 1.99123 214.1 1.99123V3.46429ZM222.892 23.9643V25.4373C223.486 25.4373 224.022 25.0804 224.251 24.5322C224.48 23.984 224.358 23.3518 223.94 22.9291L222.892 23.9643ZM217.031 23.9643V22.4912C216.217 22.4912 215.558 23.1507 215.558 23.9643H217.031ZM217.031 43V44.4731C217.844 44.4731 218.504 43.8135 218.504 43H217.031ZM209.635 43V41.5269C208.821 41.5269 208.161 42.1865 208.161 43H209.635ZM209.635 43.0001V44.4731C210.448 44.4731 211.108 43.8136 211.108 43.0001H209.635ZM190.239 43.0001H188.766C188.766 43.8136 189.426 44.4731 190.239 44.4731V43.0001ZM190.239 43H191.712C191.712 42.1865 191.053 41.5269 190.239 41.5269V43ZM181.862 43H180.388C180.388 43.8135 181.048 44.4731 181.862 44.4731V43ZM181.862 23.9643H183.335C183.335 23.1507 182.675 22.4912 181.862 22.4912V23.9643ZM176 23.9643L174.993 22.8893C174.552 23.3026 174.408 23.9435 174.63 24.5057C174.852 25.068 175.395 25.4373 176 25.4373V23.9643ZM199.446 2L200.449 0.921286C199.882 0.394082 199.004 0.395694 198.439 0.924977L199.446 2ZM206.773 8.8135L205.77 9.89222C206.199 10.2913 206.824 10.398 207.361 10.164C207.899 9.92991 208.246 9.39958 208.246 8.8135H206.773ZM206.773 3.46429V1.99123C205.959 1.99123 205.3 2.65074 205.3 3.46429H206.773ZM215.573 15.0633V3.46429H212.627V15.0633H215.573ZM223.94 22.9291L215.148 14.0281L213.052 16.0984L221.844 24.9995L223.94 22.9291ZM217.031 25.4373H222.892V22.4912H217.031V25.4373ZM218.504 43V23.9643H215.558V43H218.504ZM209.635 44.4731H217.031V41.5269H209.635V44.4731ZM208.161 43V43.0001H211.108V43H208.161ZM209.635 41.527H190.239V44.4731H209.635V41.527ZM191.712 43.0001V43H188.766V43.0001H191.712ZM181.862 44.4731H190.239V41.5269H181.862V44.4731ZM180.388 23.9643V43H183.335V23.9643H180.388ZM176 25.4373H181.862V22.4912H176V25.4373ZM198.439 0.924977L174.993 22.8893L177.007 25.0393L200.453 3.07502L198.439 0.924977ZM207.776 7.73479L200.449 0.921286L198.443 3.07871L205.77 9.89222L207.776 7.73479ZM205.3 3.46429V8.8135H208.246V3.46429H205.3ZM214.1 1.99123H206.773V4.93734H214.1V1.99123Z" fill="#602B7A" mask="url(#path-1-outside-1_34263_207)"/>
<path d="M214.1 15.0633V3.46429H206.773V8.8135L199.446 2L176 23.9643H181.862V43H195.05V28.3571H203.842V43H217.031V23.9643H222.892L214.1 15.0633Z" fill="#FFD749"/>
</g>
<g filter="url(#filter1_d_34263_207)">
<path d="M16.4083 29.1124L24.1306 36.847L16.4411 44.5488L8.71881 36.8142L16.4083 29.1124Z" fill="#602B7A"/>
<path d="M0 7H162V36.8669H0V7Z" fill="#602B7A"/>
<path d="M35.974 15.8703V27.9958H33.3813V18.3924H29.3723V22.9031C29.3723 24.827 28.9562 26.1931 28.1239 27.0015C27.2917 27.8099 26.1074 28.1413 24.571 27.9958V25.5464C25.3072 25.6758 25.8593 25.5222 26.2274 25.0857C26.5955 24.6492 26.7796 23.8812 26.7796 22.7818V15.8703H35.974Z" fill="white"/>
<path d="M47.0374 15.8703V18.3924H41.588V27.9958H38.9953V15.8703H47.0374Z" fill="white"/>
<path d="M53.9914 28.311C52.2309 28.311 50.7345 27.6967 49.5022 26.468C48.2699 25.2393 47.6537 23.7276 47.6537 21.9331C47.6537 20.1385 48.2699 18.6269 49.5022 17.3981C50.7345 16.1694 52.2309 15.5551 53.9914 15.5551C55.7679 15.5551 57.2643 16.1694 58.4806 17.3981C59.7129 18.6269 60.3291 20.1385 60.3291 21.9331C60.3291 23.7276 59.7129 25.2393 58.4806 26.468C57.2643 27.6967 55.7679 28.311 53.9914 28.311ZM51.3267 24.6734C52.0469 25.4009 52.9351 25.7647 53.9914 25.7647C55.0477 25.7647 55.9359 25.4009 56.6561 24.6734C57.3763 23.9459 57.7364 23.0324 57.7364 21.9331C57.7364 20.8337 57.3763 19.9202 56.6561 19.1927C55.9359 18.4652 55.0477 18.1014 53.9914 18.1014C52.9351 18.1014 52.0469 18.4652 51.3267 19.1927C50.6065 19.9202 50.2464 20.8337 50.2464 21.9331C50.2464 23.0324 50.6065 23.9459 51.3267 24.6734Z" fill="white"/>
<path d="M68.894 15.5551C70.5424 15.5551 71.9508 16.1775 73.1192 17.4224C74.2875 18.6511 74.8716 20.1547 74.8716 21.9331C74.8716 23.7276 74.2875 25.2393 73.1192 26.468C71.9508 27.6967 70.5424 28.311 68.894 28.311C67.0695 28.311 65.669 27.632 64.6928 26.274V31.9844H62.1V15.8703H64.6928V17.6164C65.669 16.2422 67.0695 15.5551 68.894 15.5551ZM65.7731 24.7219C66.4933 25.4494 67.3976 25.8132 68.4859 25.8132C69.5742 25.8132 70.4784 25.4494 71.1986 24.7219C71.9188 23.9782 72.2789 23.0486 72.2789 21.9331C72.2789 20.8175 71.9188 19.896 71.1986 19.1685C70.4784 18.4248 69.5742 18.0529 68.4859 18.0529C67.3976 18.0529 66.4933 18.4248 65.7731 19.1685C65.0529 19.896 64.6928 20.8175 64.6928 21.9331C64.6928 23.0486 65.0529 23.9782 65.7731 24.7219Z" fill="white"/>
<path d="M85.3385 15.8703H87.3311V27.9958H84.7864V20.284L78.6406 27.9958H76.648V15.8703H79.1927V23.5579L85.3385 15.8703Z" fill="white"/>
<path d="M99.5098 15.8703V18.3924H95.5968V27.9958H93.0041V18.3924H89.067V15.8703H99.5098Z" fill="white"/>
<path d="M113.507 15.8703V27.9958H110.987V20.0172L107.53 25.5707H107.218L103.785 20.0415V27.9958H101.264V15.8703H103.905L107.386 21.4723L110.867 15.8703H113.507Z" fill="white"/>
<path d="M125.193 15.8703H127.185V27.9958H124.641V20.284L118.495 27.9958H116.503V15.8703H119.047V23.5579L125.193 15.8703Z" fill="white"/>
<path d="M140.518 27.9958H137.421L132.5 22.3938V27.9958H129.907V15.8703H132.5V21.2298L137.157 15.8703H140.326L135.044 21.8118L140.518 27.9958Z" fill="white"/>
<path d="M150.234 15.8703H152.826V27.9958H150.234V26.2497C149.257 27.6239 147.857 28.311 146.033 28.311C144.384 28.311 142.976 27.6967 141.808 26.468C140.639 25.2231 140.055 23.7115 140.055 21.9331C140.055 20.1385 140.639 18.6269 141.808 17.3981C142.976 16.1694 144.384 15.5551 146.033 15.5551C147.857 15.5551 149.257 16.2341 150.234 17.5922V15.8703ZM143.728 24.7219C144.448 25.4494 145.352 25.8132 146.441 25.8132C147.529 25.8132 148.433 25.4494 149.153 24.7219C149.874 23.9782 150.234 23.0486 150.234 21.9331C150.234 20.8175 149.874 19.896 149.153 19.1685C148.433 18.4248 147.529 18.0529 146.441 18.0529C145.352 18.0529 144.448 18.4248 143.728 19.1685C143.008 19.896 142.648 20.8175 142.648 21.9331C142.648 23.0486 143.008 23.9782 143.728 24.7219Z" fill="white"/>
<path d="M21.1094 27.9958L19.641 24.5764H13.0463L11.6029 27.9958H8.60205L14.91 11.8817H17.7773L24.0862 27.9958H21.1094ZM13.9065 21.9573H18.7808L16.3436 15.1843L13.9065 21.9573Z" fill="white"/>
</g>
<defs>
<filter id="filter0_d_34263_207" x="174.527" y="0.526978" width="51.8384" height="46.9462" filterUnits="userSpaceOnUse" color-interpolation-filters="sRGB">
<feFlood flood-opacity="0" result="BackgroundImageFix"/>
<feColorMatrix in="SourceAlpha" type="matrix" values="0 0 0 0 0 0 0 0 0 0 0 0 0 0 0 0 0 0 127 0" result="hardAlpha"/>
<feOffset dx="2" dy="3"/>
<feComposite in2="hardAlpha" operator="out"/>
<feColorMatrix type="matrix" values="0 0 0 0 0 0 0 0 0 0 0 0 0 0 0 0 0 0 0.25 0"/>
<feBlend mode="normal" in2="BackgroundImageFix" result="effect1_dropShadow_34263_207"/>
<feBlend mode="normal" in="SourceGraphic" in2="effect1_dropShadow_34263_207" result="shape"/>
</filter>
<filter id="filter1_d_34263_207" x="0" y="7" width="164" height="40.5487" filterUnits="userSpaceOnUse" color-interpolation-filters="sRGB">
<feFlood flood-opacity="0" result="BackgroundImageFix"/>
<feColorMatrix in="SourceAlpha" type="matrix" values="0 0 0 0 0 0 0 0 0 0 0 0 0 0 0 0 0 0 127 0" result="hardAlpha"/>
<feOffset dx="2" dy="3"/>
<feComposite in2="hardAlpha" operator="out"/>
<feColorMatrix type="matrix" values="0 0 0 0 0 0 0 0 0 0 0 0 0 0 0 0 0 0 0.25 0"/>
<feBlend mode="normal" in2="BackgroundImageFix" result="effect1_dropShadow_34263_207"/>
<feBlend mode="normal" in="SourceGraphic" in2="effect1_dropShadow_34263_207" result="shape"/>
</filter>
</defs>
</svg>
