<svg width="60" height="58" viewBox="0 0 60 58" fill="none" xmlns="http://www.w3.org/2000/svg">
<path d="M56.8801 8.60406C56.8801 5.64106 54.3731 3.23706 51.2801 3.23706H8.72012C5.62712 3.23706 3.12012 5.64106 3.12012 8.60406V49.3911C3.12012 52.3561 5.62712 54.7581 8.72012 54.7581H51.2801C54.3731 54.7581 56.8801 52.3561 56.8801 49.3911V8.60406Z" fill="url(#paint0_linear_8_97)"/>
<path d="M51.28 55.878H8.72C5.015 55.878 2 52.97 2 49.392V8.60404C2 5.02804 5.015 2.11804 8.72 2.11804H51.28C54.986 2.11804 58 5.02804 58 8.60404V49.391C58 52.97 54.986 55.878 51.28 55.878ZM8.72 4.35804C6.25 4.35804 4.24 6.26204 4.24 8.60404V49.391C4.24 51.733 6.25 53.637 8.72 53.637H51.28C53.75 53.637 55.759 51.733 55.759 49.391V8.60404C55.759 6.26204 53.749 4.35804 51.28 4.35804H8.72Z" fill="url(#paint1_linear_8_97)"/>
<path fill-rule="evenodd" clip-rule="evenodd" d="M34 37.5H38.5V33H41.5V37.5H46V40.5H41.5V45H38.5V40.5H34V37.5ZM19 42H31.45C31.15 41.1 31 40.05 31 39C31 38.55 31 37.95 31.15 37.5H19L24.25 30.75L28 35.25L33.25 28.5L35.35 31.35C36.7 30.45 38.35 30 40 30C41.05 30 42.1 30.15 43 30.45V18C43 16.35 41.65 15 40 15H19C17.35 15 16 16.35 16 18V39C16 40.65 17.35 42 19 42ZM24 27C26.2091 27 28 25.2091 28 23C28 20.7909 26.2091 19 24 19C21.7909 19 20 20.7909 20 23C20 25.2091 21.7909 27 24 27Z" fill="#606060"/>
<defs>
<linearGradient id="paint0_linear_8_97" x1="30.0001" y1="3.79696" x2="30.0001" y2="55.5127" gradientUnits="userSpaceOnUse">
<stop offset="0.3573" stop-color="white"/>
<stop offset="0.5178" stop-color="#FBFBFB"/>
<stop offset="0.6599" stop-color="#F1F1F1"/>
<stop offset="0.7949" stop-color="#DFDFDF"/>
<stop offset="0.9249" stop-color="#C5C5C5"/>
<stop offset="1" stop-color="#B3B3B3"/>
</linearGradient>
<linearGradient id="paint1_linear_8_97" x1="30" y1="55.8779" x2="30" y2="2.85944" gradientUnits="userSpaceOnUse">
<stop stop-color="white"/>
<stop offset="0.2309" stop-color="#FBFBFB"/>
<stop offset="0.4598" stop-color="#EFEFEF"/>
<stop offset="0.6879" stop-color="#DBDBDB"/>
<stop offset="0.9144" stop-color="#C0C0C0"/>
<stop offset="1" stop-color="#B3B3B3"/>
</linearGradient>
</defs>
</svg>
