<svg width="60" height="58" viewBox="0 0 60 58" fill="none" xmlns="http://www.w3.org/2000/svg">
<path d="M56.8801 8.48597C56.8801 5.52097 54.3731 3.12097 51.2791 3.12097H8.72012C5.62712 3.12097 3.12012 5.52097 3.12012 8.48597V49.275C3.12012 52.238 5.62712 54.64 8.72012 54.64H51.2791C54.3731 54.64 56.8801 52.238 56.8801 49.275V8.48597Z" fill="#FFAA00"/>
<path d="M51.2771 4.24194H8.71606C6.24606 4.24194 4.23706 6.14794 4.23706 8.48994V49.2769C4.23706 51.6169 6.24706 53.5229 8.71606 53.5229H51.2781C53.7481 53.5229 55.7571 51.6169 55.7571 49.2769V8.48994C55.7561 6.14794 53.7461 4.24194 51.2771 4.24194ZM52.7561 49.2769C52.7561 49.9529 52.0791 50.5229 51.2771 50.5229H8.71606C7.91406 50.5229 7.23706 49.9529 7.23706 49.2769V8.48994C7.23706 7.81394 7.91406 7.24194 8.71606 7.24194H51.2781C52.0801 7.24194 52.7571 7.81394 52.7571 8.48994L52.7561 49.2769Z" fill="black" fill-opacity="0.17"/>
<path d="M51.279 55.76H8.72C5.015 55.76 2 52.852 2 49.277V8.486C2 4.91 5.015 2 8.72 2H51.279C54.986 2 58 4.91 58 8.486V49.275C58 52.852 54.986 55.76 51.279 55.76ZM8.72 4.24C6.25 4.24 4.24 6.146 4.24 8.486V49.275C4.24 51.615 6.25 53.519 8.72 53.519H51.279C53.75 53.519 55.758 51.615 55.758 49.275V8.486C55.758 6.146 53.748 4.24 51.279 4.24H8.72Z" fill="url(#paint0_linear_8_82)"/>
<path fill-rule="evenodd" clip-rule="evenodd" d="M34 37.5H38.5V33H41.5V37.5H46V40.5H41.5V45H38.5V40.5H34V37.5ZM19 42H31.45C31.15 41.1 31 40.05 31 39C31 38.55 31 37.95 31.15 37.5H19L24.25 30.75L28 35.25L33.25 28.5L35.35 31.35C36.7 30.45 38.35 30 40 30C41.05 30 42.1 30.15 43 30.45V18C43 16.35 41.65 15 40 15H19C17.35 15 16 16.35 16 18V39C16 40.65 17.35 42 19 42ZM24 27C26.2091 27 28 25.2091 28 23C28 20.7909 26.2091 19 24 19C21.7909 19 20 20.7909 20 23C20 25.2091 21.7909 27 24 27Z" fill="white"/>
<defs>
<linearGradient id="paint0_linear_8_82" x1="30" y1="55.7594" x2="30" y2="2.7419" gradientUnits="userSpaceOnUse">
<stop stop-color="white"/>
<stop offset="0.2309" stop-color="#FBFBFB"/>
<stop offset="0.4598" stop-color="#EFEFEF"/>
<stop offset="0.6879" stop-color="#DBDBDB"/>
<stop offset="0.9144" stop-color="#C0C0C0"/>
<stop offset="1" stop-color="#B3B3B3"/>
</linearGradient>
</defs>
</svg>
